 <svg  version="1.0" xmlns="http://www.w3.org/2000/svg"  width="300.000000pt" height="300.000000pt" viewBox="0 0 300.000000 300.000000"  preserveAspectRatio="xMidYMid meet">  <g transform="translate(0.000000,300.000000) scale(0.100000,-0.100000)" fill="#dfc416" stroke="none"> <path d="M857 2237 c-8 -65 7 -165 35 -231 53 -124 172 -258 296 -330 20 -12 14 1 -19 39 l-31 35 27 0 c27 0 26 1 -27 63 -124 142 -204 274 -248 411 -12 36 -23 66 -24 66 -2 0 -6 -24 -9 -53z"/> <path d="M810 2065 c0 -41 31 -142 66 -214 46 -93 134 -183 240 -245 43 -25 82 -46 86 -46 22 0 2 24 -52 61 -63 45 -70 56 -26 39 15 -5 37 -10 49 -10 16 0 8 9 -31 35 -136 89 -230 192 -293 320 -21 44 -39 71 -39 60z"/> <path d="M1142 1922 c4 -54 12 -82 34 -119 25 -41 29 -45 32 -25 5 30 12 28 53 -14 54 -56 59 -57 146 -28 180 60 329 -3 374 -158 13 -46 2 -58 -47 -58 -43 0 -45 2 -63 43 -24 56 -51 78 -106 88 -92 17 -164 -19 -186 -92 -16 -52 17 -120 72 -152 46 -26 48 -34 13 -47 -70 -27 -232 1 -319 55 l-40 24 50 1 50 1 -50 18 c-82 29 -163 71 -210 107 -25 19 -45 29 -45 24 0 -5 24 -38 53 -72 70 -82 171 -151 274 -184 70 -23 94 -26 165 -22 83 4 124 18 177 59 22 17 22 19 5 25 -71 25 -142 66 -152 89 -17 38 -15 69 9 99 19 24 26 26 94 26 68 0 75 -2 94 -26 13 -17 21 -41 21 -65 l0 -39 95 0 95 0 0 38 c0 116 -76 225 -182 262 -99 34 -246 20 -301 -28 -17 -15 -19 -15 -29 2 -6 11 -42 53 -80 94 -40 43 -71 86 -75 103 -3 16 -10 32 -16 36 -6 4 -8 -18 -5 -65z"/> <path d="M816 1843 c26 -110 82 -213 141 -262 55 -47 253 -138 253 -117 0 3 -40 26 -88 51 -49 25 -102 59 -118 76 -28 30 -27 30 59 -15 49 -25 100 -46 113 -46 34 0 22 16 -31 39 -103 45 -247 171 -304 264 -27 44 -34 47 -25 10z"/> <path d="M1591 1349 c-48 -39 -96 -60 -155 -68 l-51 -7 55 -18 c73 -25 163 -70 180 -91 22 -27 18 -91 -7 -116 -26 -26 -97 -36 -145 -20 -39 13 -58 44 -58 96 l0 35 -96 0 -96 0 4 -62 c11 -159 125 -258 298 -258 100 0 165 24 225 85 137 136 98 344 -80 433 l-40 20 -34 -29z m138 -95 c37 -43 61 -94 61 -135 0 -38 -34 -122 -62 -155 -45 -51 -101 -76 -183 -82 -85 -5 -138 8 -194 49 -46 33 -95 121 -89 161 3 20 9 23 52 23 46 0 50 -2 60 -32 36 -106 183 -138 263 -58 29 29 33 39 33 85 0 48 -3 56 -38 89 -22 20 -50 43 -63 52 l-23 16 43 31 c41 30 45 31 71 17 15 -8 46 -35 69 -61z"/> </g> </svg> 